<?xml version="1.0" encoding="utf-8" standalone="no"?>
<!DOCTYPE svg PUBLIC "-//W3C//DTD SVG 1.1//EN"
  "http://www.w3.org/Graphics/SVG/1.1/DTD/svg11.dtd">
<svg xmlns:xlink="http://www.w3.org/1999/xlink" width="549.726671pt" height="274.621875pt" viewBox="0 0 549.726671 274.621875" xmlns="http://www.w3.org/2000/svg" version="1.1">
 <metadata>
  <rdf:RDF xmlns:dc="http://purl.org/dc/elements/1.1/" xmlns:cc="http://creativecommons.org/ns#" xmlns:rdf="http://www.w3.org/1999/02/22-rdf-syntax-ns#">
   <cc:Work>
    <dc:type rdf:resource="http://purl.org/dc/dcmitype/StillImage"/>
    <dc:date>2026-07-03T13:55:36.049241</dc:date>
    <dc:format>image/svg+xml</dc:format>
    <dc:creator>
     <cc:Agent>
      <dc:title>Matplotlib v3.9.4, https://matplotlib.org/</dc:title>
     </cc:Agent>
    </dc:creator>
   </cc:Work>
  </rdf:RDF>
 </metadata>
 <defs>
  <style type="text/css">*{stroke-linejoin: round; stroke-linecap: butt}</style>
 </defs>
 <g id="figure_1">
  <g id="patch_1">
   <path d="M 0 274.621875 
L 549.726671 274.621875 
L 549.726671 0 
L 0 0 
z
" style="fill: #ffffff"/>
  </g>
  <g id="axes_1">
   <g id="patch_2">
    <path d="M 123.53875 239.359688 
L 267.381659 239.359688 
L 267.381659 20.479688 
L 123.53875 20.479688 
z
" style="fill: #ffffff"/>
   </g>
   <g id="matplotlib.axis_1">
    <g id="xtick_1">
     <g id="line2d_1">
      <path d="M 123.53875 239.359688 
L 123.53875 20.479688 
" clip-path="url(#pfd51531ead)" style="fill: none; stroke: #e5e7eb; stroke-width: 0.7; stroke-linecap: round"/>
     </g>
     <g id="text_1">
      <text style="fill: #262626; font: 8px 'Arial'; text-anchor: middle" x="123.53875" y="253.385937" transform="rotate(-0 123.53875 253.385937)">0</text>
     </g>
    </g>
    <g id="xtick_2">
     <g id="line2d_2">
      <path d="M 158.611701 239.359688 
L 158.611701 20.479688 
" clip-path="url(#pfd51531ead)" style="fill: none; stroke: #e5e7eb; stroke-width: 0.7; stroke-linecap: round"/>
     </g>
     <g id="text_2">
      <text style="fill: #262626; font: 8px 'Arial'; text-anchor: middle" x="158.611701" y="253.385937" transform="rotate(-0 158.611701 253.385937)">2</text>
     </g>
    </g>
    <g id="xtick_3">
     <g id="line2d_3">
      <path d="M 193.684652 239.359688 
L 193.684652 20.479688 
" clip-path="url(#pfd51531ead)" style="fill: none; stroke: #e5e7eb; stroke-width: 0.7; stroke-linecap: round"/>
     </g>
     <g id="text_3">
      <text style="fill: #262626; font: 8px 'Arial'; text-anchor: middle" x="193.684652" y="253.385937" transform="rotate(-0 193.684652 253.385937)">4</text>
     </g>
    </g>
    <g id="xtick_4">
     <g id="line2d_4">
      <path d="M 228.757603 239.359688 
L 228.757603 20.479688 
" clip-path="url(#pfd51531ead)" style="fill: none; stroke: #e5e7eb; stroke-width: 0.7; stroke-linecap: round"/>
     </g>
     <g id="text_4">
      <text style="fill: #262626; font: 8px 'Arial'; text-anchor: middle" x="228.757603" y="253.385937" transform="rotate(-0 228.757603 253.385937)">6</text>
     </g>
    </g>
    <g id="xtick_5">
     <g id="line2d_5">
      <path d="M 263.830554 239.359688 
L 263.830554 20.479688 
" clip-path="url(#pfd51531ead)" style="fill: none; stroke: #e5e7eb; stroke-width: 0.7; stroke-linecap: round"/>
     </g>
     <g id="text_5">
      <text style="fill: #262626; font: 8px 'Arial'; text-anchor: middle" x="263.830554" y="253.385937" transform="rotate(-0 263.830554 253.385937)">8</text>
     </g>
    </g>
    <g id="text_6">
     <text style="fill: #262626; font: 9px 'Arial'; text-anchor: middle" x="195.460205" y="265.527656" transform="rotate(-0 195.460205 265.527656)">MAP RMSE (mmHg)</text>
    </g>
   </g>
   <g id="matplotlib.axis_2">
    <g id="ytick_1">
     <g id="text_7">
      <text style="fill: #262626; font: 8px 'Arial'" transform="translate(80.995 39.837974)">Proposed</text>
      <text style="fill: #262626; font: 8px 'Arial'" transform="translate(32.86625 48.299474)">CNN-Transformer PPO</text>
     </g>
    </g>
    <g id="ytick_2">
     <g id="text_8">
      <text style="fill: #262626; font: 8px 'Arial'; text-anchor: end" x="115.23875" y="69.006589" transform="rotate(-0 115.23875 69.006589)">TD3</text>
     </g>
    </g>
    <g id="ytick_3">
     <g id="text_9">
      <text style="fill: #262626; font: 8px 'Arial'; text-anchor: end" x="115.23875" y="94.517078" transform="rotate(-0 115.23875 94.517078)">Model predictive control</text>
     </g>
    </g>
    <g id="ytick_4">
     <g id="text_10">
      <text style="fill: #262626; font: 8px 'Arial'; text-anchor: end" x="115.23875" y="120.027568" transform="rotate(-0 115.23875 120.027568)">Reference DRL VAD controller</text>
     </g>
    </g>
    <g id="ytick_5">
     <g id="text_11">
      <text style="fill: #262626; font: 8px 'Arial'; text-anchor: end" x="115.23875" y="145.538057" transform="rotate(-0 115.23875 145.538057)">DDPG</text>
     </g>
    </g>
    <g id="ytick_6">
     <g id="text_12">
      <text style="fill: #262626; font: 8px 'Arial'; text-anchor: end" x="115.23875" y="171.097297" transform="rotate(-0 115.23875 171.097297)">Starling-like control</text>
     </g>
    </g>
    <g id="ytick_7">
     <g id="text_13">
      <text style="fill: #262626; font: 8px 'Arial'; text-anchor: end" x="115.23875" y="196.559036" transform="rotate(-0 115.23875 196.559036)">Fuzzy control</text>
     </g>
    </g>
    <g id="ytick_8">
     <g id="text_14">
      <text style="fill: #262626; font: 8px 'Arial'; text-anchor: end" x="115.23875" y="222.069526" transform="rotate(-0 115.23875 222.069526)">PI control</text>
     </g>
    </g>
   </g>
   <g id="patch_3">
    <path d="M 123.53875 30.428778 
L 179.414515 30.428778 
L 179.414515 50.83717 
L 123.53875 50.83717 
z
" clip-path="url(#pfd51531ead)" style="fill: #0b8a5a; stroke: #ffffff; stroke-width: 0.6; stroke-linejoin: miter"/>
   </g>
   <g id="patch_4">
    <path d="M 123.53875 55.939268 
L 206.518039 55.939268 
L 206.518039 76.34766 
L 123.53875 76.34766 
z
" clip-path="url(#pfd51531ead)" style="fill: #2563eb; stroke: #ffffff; stroke-width: 0.6; stroke-linejoin: miter"/>
   </g>
   <g id="patch_5">
    <path d="M 123.53875 81.449757 
L 213.432904 81.449757 
L 213.432904 101.858149 
L 123.53875 101.858149 
z
" clip-path="url(#pfd51531ead)" style="fill: #d97706; stroke: #ffffff; stroke-width: 0.6; stroke-linejoin: miter"/>
   </g>
   <g id="patch_6">
    <path d="M 123.53875 106.960247 
L 215.058863 106.960247 
L 215.058863 127.368639 
L 123.53875 127.368639 
z
" clip-path="url(#pfd51531ead)" style="fill: #7c3aed; stroke: #ffffff; stroke-width: 0.6; stroke-linejoin: miter"/>
   </g>
   <g id="patch_7">
    <path d="M 123.53875 132.470736 
L 221.39468 132.470736 
L 221.39468 152.879128 
L 123.53875 152.879128 
z
" clip-path="url(#pfd51531ead)" style="fill: #0ea5e9; stroke: #ffffff; stroke-width: 0.6; stroke-linejoin: miter"/>
   </g>
   <g id="patch_8">
    <path d="M 123.53875 157.981226 
L 236.992798 157.981226 
L 236.992798 178.389618 
L 123.53875 178.389618 
z
" clip-path="url(#pfd51531ead)" style="fill: #ca8a04; stroke: #ffffff; stroke-width: 0.6; stroke-linejoin: miter"/>
   </g>
   <g id="patch_9">
    <path d="M 123.53875 183.491715 
L 247.802855 183.491715 
L 247.802855 203.900107 
L 123.53875 203.900107 
z
" clip-path="url(#pfd51531ead)" style="fill: #db2777; stroke: #ffffff; stroke-width: 0.6; stroke-linejoin: miter"/>
   </g>
   <g id="patch_10">
    <path d="M 123.53875 209.002205 
L 255.930154 209.002205 
L 255.930154 229.410597 
L 123.53875 229.410597 
z
" clip-path="url(#pfd51531ead)" style="fill: #64748b; stroke: #ffffff; stroke-width: 0.6; stroke-linejoin: miter"/>
   </g>
   <g id="LineCollection_1">
    <path d="M 176.277006 40.632974 
L 182.552024 40.632974 
" clip-path="url(#pfd51531ead)" style="fill: none; stroke: #334155"/>
    <path d="M 202.910773 66.143464 
L 210.125306 66.143464 
" clip-path="url(#pfd51531ead)" style="fill: none; stroke: #334155"/>
    <path d="M 209.779185 91.653953 
L 217.086622 91.653953 
" clip-path="url(#pfd51531ead)" style="fill: none; stroke: #334155"/>
    <path d="M 211.448762 117.164443 
L 218.668965 117.164443 
" clip-path="url(#pfd51531ead)" style="fill: none; stroke: #334155"/>
    <path d="M 216.595134 142.674932 
L 226.194227 142.674932 
" clip-path="url(#pfd51531ead)" style="fill: none; stroke: #334155"/>
    <path d="M 233.392617 168.185422 
L 240.592979 168.185422 
" clip-path="url(#pfd51531ead)" style="fill: none; stroke: #334155"/>
    <path d="M 244.276256 193.695911 
L 251.329453 193.695911 
" clip-path="url(#pfd51531ead)" style="fill: none; stroke: #334155"/>
    <path d="M 251.328312 219.206401 
L 260.531997 219.206401 
" clip-path="url(#pfd51531ead)" style="fill: none; stroke: #334155"/>
   </g>
   <g id="line2d_6">
    <defs>
     <path id="m092f567828" d="M 0 2.5 
L 0 -2.5 
" style="stroke: #334155"/>
    </defs>
    <g clip-path="url(#pfd51531ead)">
     <use xlink:href="#m092f567828" x="176.277006" y="40.632974" style="fill: #334155; stroke: #334155"/>
     <use xlink:href="#m092f567828" x="202.910773" y="66.143464" style="fill: #334155; stroke: #334155"/>
     <use xlink:href="#m092f567828" x="209.779185" y="91.653953" style="fill: #334155; stroke: #334155"/>
     <use xlink:href="#m092f567828" x="211.448762" y="117.164443" style="fill: #334155; stroke: #334155"/>
     <use xlink:href="#m092f567828" x="216.595134" y="142.674932" style="fill: #334155; stroke: #334155"/>
     <use xlink:href="#m092f567828" x="233.392617" y="168.185422" style="fill: #334155; stroke: #334155"/>
     <use xlink:href="#m092f567828" x="244.276256" y="193.695911" style="fill: #334155; stroke: #334155"/>
     <use xlink:href="#m092f567828" x="251.328312" y="219.206401" style="fill: #334155; stroke: #334155"/>
    </g>
   </g>
   <g id="line2d_7">
    <g clip-path="url(#pfd51531ead)">
     <use xlink:href="#m092f567828" x="182.552024" y="40.632974" style="fill: #334155; stroke: #334155"/>
     <use xlink:href="#m092f567828" x="210.125306" y="66.143464" style="fill: #334155; stroke: #334155"/>
     <use xlink:href="#m092f567828" x="217.086622" y="91.653953" style="fill: #334155; stroke: #334155"/>
     <use xlink:href="#m092f567828" x="218.668965" y="117.164443" style="fill: #334155; stroke: #334155"/>
     <use xlink:href="#m092f567828" x="226.194227" y="142.674932" style="fill: #334155; stroke: #334155"/>
     <use xlink:href="#m092f567828" x="240.592979" y="168.185422" style="fill: #334155; stroke: #334155"/>
     <use xlink:href="#m092f567828" x="251.329453" y="193.695911" style="fill: #334155; stroke: #334155"/>
     <use xlink:href="#m092f567828" x="260.531997" y="219.206401" style="fill: #334155; stroke: #334155"/>
    </g>
   </g>
   <g id="patch_11">
    <path d="M 123.53875 239.359687 
L 123.53875 20.479687 
" style="fill: none; stroke: #cccccc; stroke-width: 0.8; stroke-linejoin: miter; stroke-linecap: square"/>
   </g>
   <g id="patch_12">
    <path d="M 123.53875 239.359688 
L 267.381659 239.359688 
" style="fill: none; stroke: #cccccc; stroke-width: 0.8; stroke-linejoin: miter; stroke-linecap: square"/>
   </g>
   <g id="text_15">
    <text style="fill: #262626; font: 700 10px 'Arial'; text-anchor: start" x="123.53875" y="14.479688" transform="rotate(-0 123.53875 14.479688)">MAP tracking accuracy</text>
   </g>
  </g>
  <g id="axes_2">
   <g id="patch_13">
    <path d="M 375.263841 239.359688 
L 519.10675 239.359688 
L 519.10675 20.479688 
L 375.263841 20.479688 
z
" style="fill: #ffffff"/>
   </g>
   <g id="matplotlib.axis_3">
    <g id="xtick_6">
     <g id="line2d_8">
      <path d="M 408.819345 239.359688 
L 408.819345 20.479688 
" clip-path="url(#pfda4929885)" style="fill: none; stroke: #e5e7eb; stroke-width: 0.7; stroke-linecap: round"/>
     </g>
     <g id="text_16">
      <text style="fill: #262626; font: 8px 'Arial'; text-anchor: middle" x="408.819345" y="253.385937" transform="rotate(-0 408.819345 253.385937)">4</text>
     </g>
    </g>
    <g id="xtick_7">
     <g id="line2d_9">
      <path d="M 463.25362 239.359688 
L 463.25362 20.479688 
" clip-path="url(#pfda4929885)" style="fill: none; stroke: #e5e7eb; stroke-width: 0.7; stroke-linecap: round"/>
     </g>
     <g id="text_17">
      <text style="fill: #262626; font: 8px 'Arial'; text-anchor: middle" x="463.25362" y="253.385937" transform="rotate(-0 463.25362 253.385937)">6</text>
     </g>
    </g>
    <g id="xtick_8">
     <g id="line2d_10">
      <path d="M 517.687896 239.359688 
L 517.687896 20.479688 
" clip-path="url(#pfda4929885)" style="fill: none; stroke: #e5e7eb; stroke-width: 0.7; stroke-linecap: round"/>
     </g>
     <g id="text_18">
      <text style="fill: #262626; font: 8px 'Arial'; text-anchor: middle" x="517.687896" y="253.385937" transform="rotate(-0 517.687896 253.385937)">8</text>
     </g>
    </g>
    <g id="text_19">
     <text style="fill: #262626; font: 9px 'Arial'; text-anchor: middle" x="447.185295" y="265.527656" transform="rotate(-0 447.185295 265.527656)">MAP RMSE (mmHg)</text>
    </g>
   </g>
   <g id="matplotlib.axis_4">
    <g id="ytick_9">
     <g id="line2d_11">
      <path d="M 375.263841 205.157763 
L 519.10675 205.157763 
" clip-path="url(#pfda4929885)" style="fill: none; stroke: #e5e7eb; stroke-width: 0.7; stroke-linecap: round"/>
     </g>
     <g id="text_20">
      <text style="fill: #262626; font: 8px 'Arial'; text-anchor: end" x="366.963841" y="208.020888" transform="rotate(-0 366.963841 208.020888)">4</text>
     </g>
    </g>
    <g id="ytick_10">
     <g id="line2d_12">
      <path d="M 375.263841 162.24334 
L 519.10675 162.24334 
" clip-path="url(#pfda4929885)" style="fill: none; stroke: #e5e7eb; stroke-width: 0.7; stroke-linecap: round"/>
     </g>
     <g id="text_21">
      <text style="fill: #262626; font: 8px 'Arial'; text-anchor: end" x="366.963841" y="165.106465" transform="rotate(-0 366.963841 165.106465)">6</text>
     </g>
    </g>
    <g id="ytick_11">
     <g id="line2d_13">
      <path d="M 375.263841 119.328918 
L 519.10675 119.328918 
" clip-path="url(#pfda4929885)" style="fill: none; stroke: #e5e7eb; stroke-width: 0.7; stroke-linecap: round"/>
     </g>
     <g id="text_22">
      <text style="fill: #262626; font: 8px 'Arial'; text-anchor: end" x="366.963841" y="122.192043" transform="rotate(-0 366.963841 122.192043)">8</text>
     </g>
    </g>
    <g id="ytick_12">
     <g id="line2d_14">
      <path d="M 375.263841 76.414495 
L 519.10675 76.414495 
" clip-path="url(#pfda4929885)" style="fill: none; stroke: #e5e7eb; stroke-width: 0.7; stroke-linecap: round"/>
     </g>
     <g id="text_23">
      <text style="fill: #262626; font: 8px 'Arial'; text-anchor: end" x="366.963841" y="79.27762" transform="rotate(-0 366.963841 79.27762)">10</text>
     </g>
    </g>
    <g id="ytick_13">
     <g id="line2d_15">
      <path d="M 375.263841 33.500072 
L 519.10675 33.500072 
" clip-path="url(#pfda4929885)" style="fill: none; stroke: #e5e7eb; stroke-width: 0.7; stroke-linecap: round"/>
     </g>
     <g id="text_24">
      <text style="fill: #262626; font: 8px 'Arial'; text-anchor: end" x="366.963841" y="36.363197" transform="rotate(-0 366.963841 36.363197)">12</text>
     </g>
    </g>
    <g id="text_25">
     <text style="fill: #262626; font: 9px 'Arial'; text-anchor: middle" x="352.172122" y="129.919688" transform="rotate(-90 352.172122 129.919688)">Unsafe event rate (%)</text>
    </g>
   </g>
   <g id="patch_14">
    <path d="M 375.263841 239.359688 
L 375.263841 20.479688 
" style="fill: none; stroke: #cccccc; stroke-width: 0.8; stroke-linejoin: miter; stroke-linecap: square"/>
   </g>
   <g id="patch_15">
    <path d="M 375.263841 239.359688 
L 519.10675 239.359688 
" style="fill: none; stroke: #cccccc; stroke-width: 0.8; stroke-linejoin: miter; stroke-linecap: square"/>
   </g>
   <g id="LineCollection_2">
    <path d="M 381.802155 227.1504 
L 391.541172 227.1504 
" clip-path="url(#pfda4929885)" style="fill: none; stroke: #0b8a5a"/>
   </g>
   <g id="LineCollection_3">
    <path d="M 386.671663 229.410597 
L 386.671663 224.890204 
" clip-path="url(#pfda4929885)" style="fill: none; stroke: #0b8a5a"/>
   </g>
   <g id="line2d_16">
    <defs>
     <path id="m25c6370369" d="M 0 2 
L 0 -2 
" style="stroke: #0b8a5a; stroke-width: 0.6"/>
    </defs>
    <g clip-path="url(#pfda4929885)">
     <use xlink:href="#m25c6370369" x="381.802155" y="227.1504" style="fill: #0b8a5a; stroke: #0b8a5a; stroke-width: 0.6"/>
    </g>
   </g>
   <g id="line2d_17">
    <g clip-path="url(#pfda4929885)">
     <use xlink:href="#m25c6370369" x="391.541172" y="227.1504" style="fill: #0b8a5a; stroke: #0b8a5a; stroke-width: 0.6"/>
    </g>
   </g>
   <g id="line2d_18">
    <defs>
     <path id="m9972f82de2" d="M 2 0 
L -2 -0 
" style="stroke: #0b8a5a; stroke-width: 0.6"/>
    </defs>
    <g clip-path="url(#pfda4929885)">
     <use xlink:href="#m9972f82de2" x="386.671663" y="229.410597" style="fill: #0b8a5a; stroke: #0b8a5a; stroke-width: 0.6"/>
    </g>
   </g>
   <g id="line2d_19">
    <g clip-path="url(#pfda4929885)">
     <use xlink:href="#m9972f82de2" x="386.671663" y="224.890204" style="fill: #0b8a5a; stroke: #0b8a5a; stroke-width: 0.6"/>
    </g>
   </g>
   <g id="text_26">
    <text style="fill: #334155; font: 7px 'Arial'; text-anchor: start" x="392.671663" y="223.1504" transform="rotate(-0 392.671663 223.1504)">Proposed</text>
   </g>
   <g id="LineCollection_4">
    <path d="M 423.138562 164.520846 
L 434.335735 164.520846 
" clip-path="url(#pfda4929885)" style="fill: none; stroke: #2563eb"/>
   </g>
   <g id="LineCollection_5">
    <path d="M 428.737149 170.877568 
L 428.737149 158.164124 
" clip-path="url(#pfda4929885)" style="fill: none; stroke: #2563eb"/>
   </g>
   <g id="line2d_20">
    <defs>
     <path id="mc9b9c66a8d" d="M 0 2 
L 0 -2 
" style="stroke: #2563eb; stroke-width: 0.6"/>
    </defs>
    <g clip-path="url(#pfda4929885)">
     <use xlink:href="#mc9b9c66a8d" x="423.138562" y="164.520846" style="fill: #2563eb; stroke: #2563eb; stroke-width: 0.6"/>
    </g>
   </g>
   <g id="line2d_21">
    <g clip-path="url(#pfda4929885)">
     <use xlink:href="#mc9b9c66a8d" x="434.335735" y="164.520846" style="fill: #2563eb; stroke: #2563eb; stroke-width: 0.6"/>
    </g>
   </g>
   <g id="line2d_22">
    <defs>
     <path id="m510c75df8a" d="M 2 0 
L -2 -0 
" style="stroke: #2563eb; stroke-width: 0.6"/>
    </defs>
    <g clip-path="url(#pfda4929885)">
     <use xlink:href="#m510c75df8a" x="428.737149" y="170.877568" style="fill: #2563eb; stroke: #2563eb; stroke-width: 0.6"/>
    </g>
   </g>
   <g id="line2d_23">
    <g clip-path="url(#pfda4929885)">
     <use xlink:href="#m510c75df8a" x="428.737149" y="158.164124" style="fill: #2563eb; stroke: #2563eb; stroke-width: 0.6"/>
    </g>
   </g>
   <g id="text_27">
    <text style="fill: #334155; font: 7px 'Arial'; text-anchor: start" x="434.737149" y="160.520846" transform="rotate(-0 434.737149 160.520846)">TD3</text>
   </g>
   <g id="LineCollection_6">
    <path d="M 444.377102 128.431004 
L 459.275184 128.431004 
" clip-path="url(#pfda4929885)" style="fill: none; stroke: #0ea5e9"/>
   </g>
   <g id="LineCollection_7">
    <path d="M 451.826143 136.610298 
L 451.826143 120.251709 
" clip-path="url(#pfda4929885)" style="fill: none; stroke: #0ea5e9"/>
   </g>
   <g id="line2d_24">
    <defs>
     <path id="mf6eaadb9f1" d="M 0 2 
L 0 -2 
" style="stroke: #0ea5e9; stroke-width: 0.6"/>
    </defs>
    <g clip-path="url(#pfda4929885)">
     <use xlink:href="#mf6eaadb9f1" x="444.377102" y="128.431004" style="fill: #0ea5e9; stroke: #0ea5e9; stroke-width: 0.6"/>
    </g>
   </g>
   <g id="line2d_25">
    <g clip-path="url(#pfda4929885)">
     <use xlink:href="#mf6eaadb9f1" x="459.275184" y="128.431004" style="fill: #0ea5e9; stroke: #0ea5e9; stroke-width: 0.6"/>
    </g>
   </g>
   <g id="line2d_26">
    <defs>
     <path id="md77c327623" d="M 2 0 
L -2 -0 
" style="stroke: #0ea5e9; stroke-width: 0.6"/>
    </defs>
    <g clip-path="url(#pfda4929885)">
     <use xlink:href="#md77c327623" x="451.826143" y="136.610298" style="fill: #0ea5e9; stroke: #0ea5e9; stroke-width: 0.6"/>
    </g>
   </g>
   <g id="line2d_27">
    <g clip-path="url(#pfda4929885)">
     <use xlink:href="#md77c327623" x="451.826143" y="120.251709" style="fill: #0ea5e9; stroke: #0ea5e9; stroke-width: 0.6"/>
    </g>
   </g>
   <g id="text_28">
    <text style="fill: #334155; font: 7px 'Arial'; text-anchor: start" x="457.826143" y="124.431004" transform="rotate(-0 457.826143 124.431004)">DDPG</text>
   </g>
   <g id="LineCollection_8">
    <path d="M 436.389778 145.229092 
L 447.595751 145.229092 
" clip-path="url(#pfda4929885)" style="fill: none; stroke: #7c3aed"/>
   </g>
   <g id="LineCollection_9">
    <path d="M 441.992765 153.606814 
L 441.992765 136.851371 
" clip-path="url(#pfda4929885)" style="fill: none; stroke: #7c3aed"/>
   </g>
   <g id="line2d_28">
    <defs>
     <path id="m553468a193" d="M 0 2 
L 0 -2 
" style="stroke: #7c3aed; stroke-width: 0.6"/>
    </defs>
    <g clip-path="url(#pfda4929885)">
     <use xlink:href="#m553468a193" x="436.389778" y="145.229092" style="fill: #7c3aed; stroke: #7c3aed; stroke-width: 0.6"/>
    </g>
   </g>
   <g id="line2d_29">
    <g clip-path="url(#pfda4929885)">
     <use xlink:href="#m553468a193" x="447.595751" y="145.229092" style="fill: #7c3aed; stroke: #7c3aed; stroke-width: 0.6"/>
    </g>
   </g>
   <g id="line2d_30">
    <defs>
     <path id="ma6384fba0b" d="M 2 0 
L -2 -0 
" style="stroke: #7c3aed; stroke-width: 0.6"/>
    </defs>
    <g clip-path="url(#pfda4929885)">
     <use xlink:href="#ma6384fba0b" x="441.992765" y="153.606814" style="fill: #7c3aed; stroke: #7c3aed; stroke-width: 0.6"/>
    </g>
   </g>
   <g id="line2d_31">
    <g clip-path="url(#pfda4929885)">
     <use xlink:href="#ma6384fba0b" x="441.992765" y="136.851371" style="fill: #7c3aed; stroke: #7c3aed; stroke-width: 0.6"/>
    </g>
   </g>
   <g id="text_29">
    <text style="fill: #334155; font: 7px 'Arial'; text-anchor: start" x="447.992765" y="141.229092" transform="rotate(-0 447.992765 141.229092)">Reference DRL VAD controller</text>
   </g>
   <g id="LineCollection_10">
    <path d="M 433.798545 157.452031 
L 445.139907 157.452031 
" clip-path="url(#pfda4929885)" style="fill: none; stroke: #d97706"/>
   </g>
   <g id="LineCollection_11">
    <path d="M 439.469226 163.131833 
L 439.469226 151.772229 
" clip-path="url(#pfda4929885)" style="fill: none; stroke: #d97706"/>
   </g>
   <g id="line2d_32">
    <defs>
     <path id="m4c351ac922" d="M 0 2 
L 0 -2 
" style="stroke: #d97706; stroke-width: 0.6"/>
    </defs>
    <g clip-path="url(#pfda4929885)">
     <use xlink:href="#m4c351ac922" x="433.798545" y="157.452031" style="fill: #d97706; stroke: #d97706; stroke-width: 0.6"/>
    </g>
   </g>
   <g id="line2d_33">
    <g clip-path="url(#pfda4929885)">
     <use xlink:href="#m4c351ac922" x="445.139907" y="157.452031" style="fill: #d97706; stroke: #d97706; stroke-width: 0.6"/>
    </g>
   </g>
   <g id="line2d_34">
    <defs>
     <path id="md1f3ceffda" d="M 2 0 
L -2 -0 
" style="stroke: #d97706; stroke-width: 0.6"/>
    </defs>
    <g clip-path="url(#pfda4929885)">
     <use xlink:href="#md1f3ceffda" x="439.469226" y="163.131833" style="fill: #d97706; stroke: #d97706; stroke-width: 0.6"/>
    </g>
   </g>
   <g id="line2d_35">
    <g clip-path="url(#pfda4929885)">
     <use xlink:href="#md1f3ceffda" x="439.469226" y="151.772229" style="fill: #d97706; stroke: #d97706; stroke-width: 0.6"/>
    </g>
   </g>
   <g id="text_30">
    <text style="fill: #334155; font: 7px 'Arial'; text-anchor: start" x="445.469226" y="153.452031" transform="rotate(-0 445.469226 153.452031)">Model predictive control</text>
   </g>
   <g id="LineCollection_12">
    <path d="M 470.447302 98.629927 
L 481.622481 98.629927 
" clip-path="url(#pfda4929885)" style="fill: none; stroke: #ca8a04"/>
   </g>
   <g id="LineCollection_13">
    <path d="M 476.034892 106.312064 
L 476.034892 90.947791 
" clip-path="url(#pfda4929885)" style="fill: none; stroke: #ca8a04"/>
   </g>
   <g id="line2d_36">
    <defs>
     <path id="m7ddb62d909" d="M 0 2 
L 0 -2 
" style="stroke: #ca8a04; stroke-width: 0.6"/>
    </defs>
    <g clip-path="url(#pfda4929885)">
     <use xlink:href="#m7ddb62d909" x="470.447302" y="98.629927" style="fill: #ca8a04; stroke: #ca8a04; stroke-width: 0.6"/>
    </g>
   </g>
   <g id="line2d_37">
    <g clip-path="url(#pfda4929885)">
     <use xlink:href="#m7ddb62d909" x="481.622481" y="98.629927" style="fill: #ca8a04; stroke: #ca8a04; stroke-width: 0.6"/>
    </g>
   </g>
   <g id="line2d_38">
    <defs>
     <path id="m8297378bd3" d="M 2 0 
L -2 -0 
" style="stroke: #ca8a04; stroke-width: 0.6"/>
    </defs>
    <g clip-path="url(#pfda4929885)">
     <use xlink:href="#m8297378bd3" x="476.034892" y="106.312064" style="fill: #ca8a04; stroke: #ca8a04; stroke-width: 0.6"/>
    </g>
   </g>
   <g id="line2d_39">
    <g clip-path="url(#pfda4929885)">
     <use xlink:href="#m8297378bd3" x="476.034892" y="90.947791" style="fill: #ca8a04; stroke: #ca8a04; stroke-width: 0.6"/>
    </g>
   </g>
   <g id="text_31">
    <text style="fill: #334155; font: 7px 'Arial'; text-anchor: start" x="482.034892" y="94.629927" transform="rotate(-0 482.034892 94.629927)">Starling-like control</text>
   </g>
   <g id="LineCollection_14">
    <path d="M 487.339038 71.294595 
L 498.285812 71.294595 
" clip-path="url(#pfda4929885)" style="fill: none; stroke: #db2777"/>
   </g>
   <g id="LineCollection_15">
    <path d="M 492.812425 84.435404 
L 492.812425 58.153786 
" clip-path="url(#pfda4929885)" style="fill: none; stroke: #db2777"/>
   </g>
   <g id="line2d_40">
    <defs>
     <path id="m78728af071" d="M 0 2 
L 0 -2 
" style="stroke: #db2777; stroke-width: 0.6"/>
    </defs>
    <g clip-path="url(#pfda4929885)">
     <use xlink:href="#m78728af071" x="487.339038" y="71.294595" style="fill: #db2777; stroke: #db2777; stroke-width: 0.6"/>
    </g>
   </g>
   <g id="line2d_41">
    <g clip-path="url(#pfda4929885)">
     <use xlink:href="#m78728af071" x="498.285812" y="71.294595" style="fill: #db2777; stroke: #db2777; stroke-width: 0.6"/>
    </g>
   </g>
   <g id="line2d_42">
    <defs>
     <path id="m8180f1599a" d="M 2 0 
L -2 -0 
" style="stroke: #db2777; stroke-width: 0.6"/>
    </defs>
    <g clip-path="url(#pfda4929885)">
     <use xlink:href="#m8180f1599a" x="492.812425" y="84.435404" style="fill: #db2777; stroke: #db2777; stroke-width: 0.6"/>
    </g>
   </g>
   <g id="line2d_43">
    <g clip-path="url(#pfda4929885)">
     <use xlink:href="#m8180f1599a" x="492.812425" y="58.153786" style="fill: #db2777; stroke: #db2777; stroke-width: 0.6"/>
    </g>
   </g>
   <g id="text_32">
    <text style="fill: #334155; font: 7px 'Arial'; text-anchor: start" x="498.812425" y="67.294595" transform="rotate(-0 498.812425 67.294595)">Fuzzy control</text>
   </g>
   <g id="LineCollection_16">
    <path d="M 498.28404 42.00909 
L 512.568436 42.00909 
" clip-path="url(#pfda4929885)" style="fill: none; stroke: #64748b"/>
   </g>
   <g id="LineCollection_17">
    <path d="M 505.426238 53.589402 
L 505.426238 30.428778 
" clip-path="url(#pfda4929885)" style="fill: none; stroke: #64748b"/>
   </g>
   <g id="line2d_44">
    <defs>
     <path id="mffc4d8f1f6" d="M 0 2 
L 0 -2 
" style="stroke: #64748b; stroke-width: 0.6"/>
    </defs>
    <g clip-path="url(#pfda4929885)">
     <use xlink:href="#mffc4d8f1f6" x="498.28404" y="42.00909" style="fill: #64748b; stroke: #64748b; stroke-width: 0.6"/>
    </g>
   </g>
   <g id="line2d_45">
    <g clip-path="url(#pfda4929885)">
     <use xlink:href="#mffc4d8f1f6" x="512.568436" y="42.00909" style="fill: #64748b; stroke: #64748b; stroke-width: 0.6"/>
    </g>
   </g>
   <g id="line2d_46">
    <defs>
     <path id="ma6fd4a79d6" d="M 2 0 
L -2 -0 
" style="stroke: #64748b; stroke-width: 0.6"/>
    </defs>
    <g clip-path="url(#pfda4929885)">
     <use xlink:href="#ma6fd4a79d6" x="505.426238" y="53.589402" style="fill: #64748b; stroke: #64748b; stroke-width: 0.6"/>
    </g>
   </g>
   <g id="line2d_47">
    <g clip-path="url(#pfda4929885)">
     <use xlink:href="#ma6fd4a79d6" x="505.426238" y="30.428778" style="fill: #64748b; stroke: #64748b; stroke-width: 0.6"/>
    </g>
   </g>
   <g id="text_33">
    <text style="fill: #334155; font: 7px 'Arial'; text-anchor: start" x="511.426238" y="38.00909" transform="rotate(-0 511.426238 38.00909)">PI control</text>
   </g>
   <g id="text_34">
    <text style="fill: #262626; font: 700 10px 'Arial'; text-anchor: start" x="375.263841" y="14.479688" transform="rotate(-0 375.263841 14.479688)">Accuracy-safety trade-off</text>
   </g>
   <g id="line2d_48">
    <defs>
     <path id="m53e4765d77" d="M 0 3.5 
C 0.928211 3.5 1.81853 3.131218 2.474874 2.474874 
C 3.131218 1.81853 3.5 0.928211 3.5 0 
C 3.5 -0.928211 3.131218 -1.81853 2.474874 -2.474874 
C 1.81853 -3.131218 0.928211 -3.5 0 -3.5 
C -0.928211 -3.5 -1.81853 -3.131218 -2.474874 -2.474874 
C -3.131218 -1.81853 -3.5 -0.928211 -3.5 0 
C -3.5 0.928211 -3.131218 1.81853 -2.474874 2.474874 
C -1.81853 3.131218 -0.928211 3.5 0 3.5 
z
" style="stroke: #ffffff; stroke-width: 0.6"/>
    </defs>
    <g clip-path="url(#pfda4929885)">
     <use xlink:href="#m53e4765d77" x="386.671663" y="227.1504" style="fill: #0b8a5a; stroke: #ffffff; stroke-width: 0.6"/>
    </g>
   </g>
   <g id="line2d_49">
    <defs>
     <path id="mc663faafa4" d="M 0 3.5 
C 0.928211 3.5 1.81853 3.131218 2.474874 2.474874 
C 3.131218 1.81853 3.5 0.928211 3.5 0 
C 3.5 -0.928211 3.131218 -1.81853 2.474874 -2.474874 
C 1.81853 -3.131218 0.928211 -3.5 0 -3.5 
C -0.928211 -3.5 -1.81853 -3.131218 -2.474874 -2.474874 
C -3.131218 -1.81853 -3.5 -0.928211 -3.5 0 
C -3.5 0.928211 -3.131218 1.81853 -2.474874 2.474874 
C -1.81853 3.131218 -0.928211 3.5 0 3.5 
z
" style="stroke: #ffffff; stroke-width: 0.6"/>
    </defs>
    <g clip-path="url(#pfda4929885)">
     <use xlink:href="#mc663faafa4" x="428.737149" y="164.520846" style="fill: #2563eb; stroke: #ffffff; stroke-width: 0.6"/>
    </g>
   </g>
   <g id="line2d_50">
    <defs>
     <path id="m9593f10899" d="M 0 3.5 
C 0.928211 3.5 1.81853 3.131218 2.474874 2.474874 
C 3.131218 1.81853 3.5 0.928211 3.5 0 
C 3.5 -0.928211 3.131218 -1.81853 2.474874 -2.474874 
C 1.81853 -3.131218 0.928211 -3.5 0 -3.5 
C -0.928211 -3.5 -1.81853 -3.131218 -2.474874 -2.474874 
C -3.131218 -1.81853 -3.5 -0.928211 -3.5 0 
C -3.5 0.928211 -3.131218 1.81853 -2.474874 2.474874 
C -1.81853 3.131218 -0.928211 3.5 0 3.5 
z
" style="stroke: #ffffff; stroke-width: 0.6"/>
    </defs>
    <g clip-path="url(#pfda4929885)">
     <use xlink:href="#m9593f10899" x="451.826143" y="128.431004" style="fill: #0ea5e9; stroke: #ffffff; stroke-width: 0.6"/>
    </g>
   </g>
   <g id="line2d_51">
    <defs>
     <path id="mabb3f6869f" d="M 0 3.5 
C 0.928211 3.5 1.81853 3.131218 2.474874 2.474874 
C 3.131218 1.81853 3.5 0.928211 3.5 0 
C 3.5 -0.928211 3.131218 -1.81853 2.474874 -2.474874 
C 1.81853 -3.131218 0.928211 -3.5 0 -3.5 
C -0.928211 -3.5 -1.81853 -3.131218 -2.474874 -2.474874 
C -3.131218 -1.81853 -3.5 -0.928211 -3.5 0 
C -3.5 0.928211 -3.131218 1.81853 -2.474874 2.474874 
C -1.81853 3.131218 -0.928211 3.5 0 3.5 
z
" style="stroke: #ffffff; stroke-width: 0.6"/>
    </defs>
    <g clip-path="url(#pfda4929885)">
     <use xlink:href="#mabb3f6869f" x="441.992765" y="145.229092" style="fill: #7c3aed; stroke: #ffffff; stroke-width: 0.6"/>
    </g>
   </g>
   <g id="line2d_52">
    <defs>
     <path id="m23d01089be" d="M 0 3.5 
C 0.928211 3.5 1.81853 3.131218 2.474874 2.474874 
C 3.131218 1.81853 3.5 0.928211 3.5 0 
C 3.5 -0.928211 3.131218 -1.81853 2.474874 -2.474874 
C 1.81853 -3.131218 0.928211 -3.5 0 -3.5 
C -0.928211 -3.5 -1.81853 -3.131218 -2.474874 -2.474874 
C -3.131218 -1.81853 -3.5 -0.928211 -3.5 0 
C -3.5 0.928211 -3.131218 1.81853 -2.474874 2.474874 
C -1.81853 3.131218 -0.928211 3.5 0 3.5 
z
" style="stroke: #ffffff; stroke-width: 0.6"/>
    </defs>
    <g clip-path="url(#pfda4929885)">
     <use xlink:href="#m23d01089be" x="439.469226" y="157.452031" style="fill: #d97706; stroke: #ffffff; stroke-width: 0.6"/>
    </g>
   </g>
   <g id="line2d_53">
    <defs>
     <path id="m1130031c11" d="M 0 3.5 
C 0.928211 3.5 1.81853 3.131218 2.474874 2.474874 
C 3.131218 1.81853 3.5 0.928211 3.5 0 
C 3.5 -0.928211 3.131218 -1.81853 2.474874 -2.474874 
C 1.81853 -3.131218 0.928211 -3.5 0 -3.5 
C -0.928211 -3.5 -1.81853 -3.131218 -2.474874 -2.474874 
C -3.131218 -1.81853 -3.5 -0.928211 -3.5 0 
C -3.5 0.928211 -3.131218 1.81853 -2.474874 2.474874 
C -1.81853 3.131218 -0.928211 3.5 0 3.5 
z
" style="stroke: #ffffff; stroke-width: 0.6"/>
    </defs>
    <g clip-path="url(#pfda4929885)">
     <use xlink:href="#m1130031c11" x="476.034892" y="98.629927" style="fill: #ca8a04; stroke: #ffffff; stroke-width: 0.6"/>
    </g>
   </g>
   <g id="line2d_54">
    <defs>
     <path id="me25fffb8de" d="M 0 3.5 
C 0.928211 3.5 1.81853 3.131218 2.474874 2.474874 
C 3.131218 1.81853 3.5 0.928211 3.5 0 
C 3.5 -0.928211 3.131218 -1.81853 2.474874 -2.474874 
C 1.81853 -3.131218 0.928211 -3.5 0 -3.5 
C -0.928211 -3.5 -1.81853 -3.131218 -2.474874 -2.474874 
C -3.131218 -1.81853 -3.5 -0.928211 -3.5 0 
C -3.5 0.928211 -3.131218 1.81853 -2.474874 2.474874 
C -1.81853 3.131218 -0.928211 3.5 0 3.5 
z
" style="stroke: #ffffff; stroke-width: 0.6"/>
    </defs>
    <g clip-path="url(#pfda4929885)">
     <use xlink:href="#me25fffb8de" x="492.812425" y="71.294595" style="fill: #db2777; stroke: #ffffff; stroke-width: 0.6"/>
    </g>
   </g>
   <g id="line2d_55">
    <defs>
     <path id="md80ad6ddab" d="M 0 3.5 
C 0.928211 3.5 1.81853 3.131218 2.474874 2.474874 
C 3.131218 1.81853 3.5 0.928211 3.5 0 
C 3.5 -0.928211 3.131218 -1.81853 2.474874 -2.474874 
C 1.81853 -3.131218 0.928211 -3.5 0 -3.5 
C -0.928211 -3.5 -1.81853 -3.131218 -2.474874 -2.474874 
C -3.131218 -1.81853 -3.5 -0.928211 -3.5 0 
C -3.5 0.928211 -3.131218 1.81853 -2.474874 2.474874 
C -1.81853 3.131218 -0.928211 3.5 0 3.5 
z
" style="stroke: #ffffff; stroke-width: 0.6"/>
    </defs>
    <g clip-path="url(#pfda4929885)">
     <use xlink:href="#md80ad6ddab" x="505.426238" y="42.00909" style="fill: #64748b; stroke: #ffffff; stroke-width: 0.6"/>
    </g>
   </g>
  </g>
 </g>
 <defs>
  <clipPath id="pfd51531ead">
   <rect x="123.53875" y="20.479688" width="143.842909" height="218.88"/>
  </clipPath>
  <clipPath id="pfda4929885">
   <rect x="375.263841" y="20.479688" width="143.842909" height="218.88"/>
  </clipPath>
 </defs>
</svg>
